# xmcd CD database file
#
# Track frame offsets:
#	150
#	14155
#	29455
#	45137
#	61870
#	78310
#	96560
#	114240
#	132397
#	149080
#	162672
#	180517
#	195985
#	213334
#	229177
#	242770
#	259180
#	275877
#	292280
#	309617
#	310277
#	311380
#	312227
#	313275
#	313947
#	314567
#	315857
#	316662
#	317907
#	319010
#	319877
#	320655
#	321757
#	322612
#	323517
#	324480
#	325222
#	325857
#	326932
#
# Disc length: 4374 seconds
#
# Revision: 0
# Processed by: cddbd v1.5.2PL0 Copyright (c) Steve Scherf et al.
# Submitted via: CDex 1.70beta2
#
DISCID=4b111427
DTITLE=Jones Country - Jones Country Recurrent CHC-1183
DYEAR=0000
DGENRE=Country
TTITLE0=Alabama/How Do You Fall In Love
TTITLE1=Alabama/She's Got That Look In Her Eyes
TTITLE2=Tracy Byrd/I Wanna Feel That Way Again
TTITLE3=Ty Herndon/A Man Holdin' On (To A Woman Lettin' Go)
TTITLE4=Ty Herndon/It Must Be Love
TTITLE5=Alan Jackson/I'll Go On Loving You
TTITLE6=Lonestar/Everything's Changed
TTITLE7=Patty Loveless/To Have You Back Again [edit]
TTITLE8=Patty Loveless/You Don't Seem To Miss Me
TTITLE9=Mindy McCready/Other Side
TTITLE10=Reba McEntire/Forever Love
TTITLE11=Tim McGraw/Where The Green Grass Grows
TTITLE12=Collin Raye/Someone You Used To Know
TTITLE13=LeAnn Rimes/Nothin' New Under The Moon
TTITLE14=Pam Tillis/I Said A Prayer
TTITLE15=Aaron Tippin/For You I Will
TTITLE16=Shania Twain/Honey, I'm Home
TTITLE17=Mark Wills/Don't Laugh At Me
TTITLE18=Lee Ann Womack/A Little Past Little Rock
TTITLE19=CHC1183/Track 20
TTITLE20=CHC1183/Track 21
TTITLE21=CHC1183/Track 22
TTITLE22=CHC1183/Track 23
TTITLE23=CHC1183/Track 24
TTITLE24=CHC1183/Track 25
TTITLE25=CHC1183/Track 26
TTITLE26=CHC1183/Track 27
TTITLE27=CHC1183/Track 28
TTITLE28=CHC1183/Track 29
TTITLE29=CHC1183/Track 30
TTITLE30=CHC1183/Track 31
TTITLE31=CHC1183/Track 32
TTITLE32=CHC1183/Track 33
TTITLE33=CHC1183/Track 34
TTITLE34=CHC1183/Track 35
TTITLE35=CHC1183/Track 36
TTITLE36=CHC1183/Track 37
TTITLE37=CHC1183/Track 38
TTITLE38=CHC1183/Track 39
EXTD=YEAR: 0000
EXTT0=
EXTT1=
EXTT2=
EXTT3=
EXTT4=
EXTT5=
EXTT6=
EXTT7=
EXTT8=
EXTT9=
EXTT10=
EXTT11=
EXTT12=
EXTT13=
EXTT14=
EXTT15=
EXTT16=
EXTT17=
EXTT18=
EXTT19=
EXTT20=
EXTT21=
EXTT22=
EXTT23=
EXTT24=
EXTT25=
EXTT26=
EXTT27=
EXTT28=
EXTT29=
EXTT30=
EXTT31=
EXTT32=
EXTT33=
EXTT34=
EXTT35=
EXTT36=
EXTT37=
EXTT38=
PLAYORDER=
